<svg width="161" height="60" viewBox="0 0 161 60" fill="none" xmlns="http://www.w3.org/2000/svg">
<path d="M28.544 34.928C28.8213 34.928 29.0347 35.0667 29.184 35.344C29.3547 35.6 29.44 35.9307 29.44 36.336C29.44 36.8267 29.3653 37.2107 29.216 37.488C29.0667 37.7653 28.832 38.0107 28.512 38.224C27.2533 39.056 25.248 40.4213 22.496 42.32C21.664 46.736 20.5867 50.2133 19.264 52.752C17.9413 55.2907 16.2667 56.56 14.24 56.56C13.152 56.56 12.2667 56.2187 11.584 55.536C10.9013 54.8747 10.56 54 10.56 52.912C10.56 51.9093 10.784 50.896 11.232 49.872C11.68 48.848 12.512 47.664 13.728 46.32C14.9653 44.976 16.704 43.44 18.944 41.712L19.04 41.104C17.3547 41.808 15.7013 42.16 14.08 42.16C11.6907 42.16 9.58933 41.7013 7.776 40.784C5.96267 39.8453 4.55467 38.5227 3.552 36.816C2.54933 35.1093 2.048 33.1253 2.048 30.864C2.048 27.7067 2.64533 24.9227 3.84 22.512C5.03467 20.08 6.67733 18.2027 8.768 16.88C10.88 15.536 13.2373 14.864 15.84 14.864C18.336 14.864 20.2027 15.4507 21.44 16.624C22.6987 17.776 23.328 19.312 23.328 21.232C23.328 22.4907 23.0933 23.504 22.624 24.272C22.176 25.0187 21.5253 25.392 20.672 25.392C20.096 25.392 19.6267 25.2533 19.264 24.976C18.9227 24.6987 18.752 24.3147 18.752 23.824C18.752 23.6107 18.7947 23.248 18.88 22.736C19.008 22.1387 19.072 21.6693 19.072 21.328C19.072 20.432 18.7947 19.7387 18.24 19.248C17.7067 18.7573 16.8 18.512 15.52 18.512C13.9627 18.512 12.512 18.96 11.168 19.856C9.84533 20.752 8.77867 22.096 7.968 23.888C7.15733 25.6587 6.752 27.792 6.752 30.288C6.752 32.848 7.44533 34.832 8.832 36.24C10.24 37.6267 12.2667 38.32 14.912 38.32C16.384 38.32 17.92 37.9893 19.52 37.328L19.968 33.424H16.704C16.1067 33.424 15.648 33.2853 15.328 33.008C15.008 32.7093 14.848 32.2293 14.848 31.568C14.848 30.9707 15.008 30.5013 15.328 30.16C15.648 29.8187 16.0747 29.648 16.608 29.648H22.592C23.0613 29.648 23.4453 29.808 23.744 30.128C24.064 30.4267 24.192 30.864 24.128 31.44C24.064 32.1227 23.8507 33.6693 23.488 36.08L23.136 38.512C24.8427 37.232 26.4 36.1227 27.808 35.184C28.0853 35.0133 28.3307 34.928 28.544 34.928ZM14.592 53.456C15.1467 53.456 15.7547 52.8267 16.416 51.568C17.0773 50.3093 17.696 48.2827 18.272 45.488C16.6507 46.8747 15.4773 48.1227 14.752 49.232C14.048 50.3627 13.696 51.3547 13.696 52.208C13.696 53.04 13.9947 53.456 14.592 53.456ZM39.6015 34.864C39.8788 34.864 40.0922 34.992 40.2415 35.248C40.4122 35.504 40.4975 35.856 40.4975 36.304C40.4975 37.1573 40.2948 37.8187 39.8895 38.288C38.9722 39.4187 37.9695 40.3467 36.8815 41.072C35.8148 41.7973 34.5988 42.16 33.2335 42.16C31.3562 42.16 29.9588 41.3067 29.0415 39.6C28.1455 37.8933 27.6975 35.6853 27.6975 32.976C27.6975 30.3733 28.0282 27.408 28.6895 24.08C29.3722 20.752 30.3642 17.8933 31.6655 15.504C32.9882 13.1147 34.5562 11.92 36.3695 11.92C37.3935 11.92 38.1935 12.4 38.7695 13.36C39.3668 14.2987 39.6655 15.6533 39.6655 17.424C39.6655 19.9627 38.9615 22.9067 37.5535 26.256C36.1455 29.6053 34.2362 32.9227 31.8255 36.208C31.9748 37.0827 32.2202 37.712 32.5615 38.096C32.9028 38.4587 33.3508 38.64 33.9055 38.64C34.7802 38.64 35.5482 38.3947 36.2095 37.904C36.8708 37.392 37.7135 36.528 38.7375 35.312C38.9935 35.0133 39.2815 34.864 39.6015 34.864ZM35.6655 15.088C35.1748 15.088 34.6202 15.9733 34.0015 17.744C33.3828 19.5147 32.8388 21.712 32.3695 24.336C31.9002 26.96 31.6442 29.4773 31.6015 31.888C33.1162 29.392 34.3215 26.896 35.2175 24.4C36.1135 21.8827 36.5615 19.5893 36.5615 17.52C36.5615 15.8987 36.2628 15.088 35.6655 15.088ZM54.231 32.176C54.5083 32.176 54.7217 32.3147 54.871 32.592C55.0203 32.8693 55.095 33.2213 55.095 33.648C55.095 34.672 54.7857 35.28 54.167 35.472C52.887 35.92 51.479 36.176 49.943 36.24C49.5377 38.032 48.7377 39.472 47.543 40.56C46.3483 41.6267 44.9937 42.16 43.479 42.16C42.199 42.16 41.1003 41.8507 40.183 41.232C39.287 40.6133 38.6043 39.792 38.135 38.768C37.6657 37.744 37.431 36.6347 37.431 35.44C37.431 33.8187 37.7403 32.3787 38.359 31.12C38.9777 29.84 39.831 28.848 40.919 28.144C42.007 27.4187 43.2123 27.056 44.535 27.056C46.1563 27.056 47.4577 27.6213 48.439 28.752C49.4417 29.8613 50.0283 31.2373 50.199 32.88C51.2017 32.816 52.3963 32.6027 53.783 32.24C53.9537 32.1973 54.103 32.176 54.231 32.176ZM43.735 38.768C44.4177 38.768 45.0043 38.4907 45.495 37.936C46.007 37.3813 46.3483 36.5813 46.519 35.536C45.8577 35.088 45.3457 34.5013 44.983 33.776C44.6417 33.0507 44.471 32.2827 44.471 31.472C44.471 31.1307 44.503 30.7893 44.567 30.448H44.407C43.5537 30.448 42.839 30.864 42.263 31.696C41.7083 32.5067 41.431 33.6587 41.431 35.152C41.431 36.3253 41.655 37.2213 42.103 37.84C42.5723 38.4587 43.1163 38.768 43.735 38.768ZM54.6205 42.16C53.8098 42.16 53.2338 41.7333 52.8925 40.88C52.5725 40.0267 52.4125 38.6613 52.4125 36.784C52.4125 34.0107 52.8072 31.376 53.5965 28.88C53.7885 28.2613 54.0978 27.8133 54.5245 27.536C54.9725 27.2373 55.5912 27.088 56.3805 27.088C56.8072 27.088 57.1058 27.1413 57.2765 27.248C57.4472 27.3547 57.5325 27.5573 57.5325 27.856C57.5325 28.1973 57.3725 28.9653 57.0525 30.16C56.8392 31.0133 56.6685 31.76 56.5405 32.4C56.4125 33.04 56.3058 33.8293 56.2205 34.768C56.9245 32.9333 57.7138 31.44 58.5885 30.288C59.4632 29.136 60.3165 28.3147 61.1485 27.824C62.0018 27.3333 62.7805 27.088 63.4845 27.088C64.8712 27.088 65.5645 27.7813 65.5645 29.168C65.5645 29.4453 65.4685 30.1173 65.2765 31.184C65.1058 32.0373 65.0205 32.5707 65.0205 32.784C65.0205 33.5307 65.2872 33.904 65.8205 33.904C66.4178 33.904 67.1858 33.4347 68.1245 32.496C68.4018 32.2187 68.6898 32.08 68.9885 32.08C69.2658 32.08 69.4792 32.208 69.6285 32.464C69.7992 32.6987 69.8845 33.0187 69.8845 33.424C69.8845 34.2133 69.6712 34.832 69.2445 35.28C68.6472 35.8987 67.9432 36.432 67.1325 36.88C66.3432 37.3067 65.5005 37.52 64.6045 37.52C63.4738 37.52 62.6098 37.232 62.0125 36.656C61.4365 36.08 61.1485 35.3013 61.1485 34.32C61.1485 34 61.1805 33.68 61.2445 33.36C61.2872 32.9333 61.3085 32.6453 61.3085 32.496C61.3085 32.1547 61.1912 31.984 60.9565 31.984C60.6365 31.984 60.2098 32.3467 59.6765 33.072C59.1645 33.776 58.6525 34.7147 58.1405 35.888C57.6285 37.0613 57.2125 38.2987 56.8925 39.6C56.6578 40.6027 56.3805 41.2853 56.0605 41.648C55.7618 41.9893 55.2818 42.16 54.6205 42.16ZM71.103 24.976C70.207 24.976 69.535 24.7733 69.087 24.368C68.639 23.9413 68.415 23.3547 68.415 22.608C68.415 21.8613 68.703 21.2427 69.279 20.752C69.8763 20.24 70.6123 19.984 71.487 19.984C72.2763 19.984 72.9163 20.176 73.407 20.56C73.8977 20.944 74.143 21.488 74.143 22.192C74.143 23.0453 73.8657 23.728 73.311 24.24C72.7563 24.7307 72.0203 24.976 71.103 24.976ZM70.847 42.16C69.4603 42.16 68.447 41.6693 67.807 40.688C67.1883 39.7067 66.879 38.4053 66.879 36.784C66.879 35.824 66.9963 34.5973 67.231 33.104C67.487 31.5893 67.807 30.1813 68.191 28.88C68.383 28.1973 68.639 27.728 68.959 27.472C69.279 27.216 69.791 27.088 70.495 27.088C71.583 27.088 72.127 27.4507 72.127 28.176C72.127 28.7093 71.9243 29.9467 71.519 31.888C71.007 34.2347 70.751 35.824 70.751 36.656C70.751 37.296 70.8363 37.7867 71.007 38.128C71.1777 38.4693 71.4657 38.64 71.871 38.64C72.255 38.64 72.735 38.3733 73.311 37.84C73.887 37.3067 74.655 36.464 75.615 35.312C75.871 35.0133 76.159 34.864 76.479 34.864C76.7563 34.864 76.9697 34.992 77.119 35.248C77.2897 35.504 77.375 35.856 77.375 36.304C77.375 37.1573 77.1723 37.8187 76.767 38.288C74.655 40.8693 72.6817 42.16 70.847 42.16ZM78.466 42.16C77.25 42.16 76.258 41.68 75.49 40.72C74.7433 39.76 74.37 38.5013 74.37 36.944C74.37 35.2373 74.7647 33.6267 75.554 32.112C76.3433 30.576 77.3887 29.3493 78.69 28.432C80.0127 27.4933 81.41 27.024 82.882 27.024C83.3513 27.024 83.6607 27.12 83.81 27.312C83.9807 27.4827 84.1193 27.8027 84.226 28.272C84.6313 28.1867 85.0793 28.144 85.57 28.144C86.082 28.144 86.4767 28.272 86.754 28.528C87.0313 28.784 87.17 29.1467 87.17 29.616C87.17 30.1067 87.0633 30.96 86.85 32.176C86.6153 33.4773 86.434 34.7253 86.306 35.92C86.178 37.0933 86.114 38.416 86.114 39.888C86.114 40.6987 85.9433 41.2853 85.602 41.648C85.282 41.9893 84.7487 42.16 84.002 42.16C83.2767 42.16 82.7327 41.9893 82.37 41.648C82.0287 41.2853 81.858 40.7093 81.858 39.92L81.89 39.408C81.2287 41.2427 80.0873 42.16 78.466 42.16ZM79.714 38.928C80.3113 38.928 80.8553 38.512 81.346 37.68C81.8367 36.848 82.274 35.3653 82.658 33.232L83.266 30C82.3913 30.0213 81.5807 30.3627 80.834 31.024C80.0873 31.664 79.49 32.5173 79.042 33.584C78.594 34.6507 78.37 35.7813 78.37 36.976C78.37 37.616 78.4873 38.1067 78.722 38.448C78.978 38.768 79.3087 38.928 79.714 38.928ZM106.231 42.16C104.994 42.16 103.596 42.0533 102.039 41.84C101.186 41.7333 100.599 41.5093 100.279 41.168C99.959 40.8267 99.8203 40.272 99.863 39.504C100.012 37.392 100.364 34.7893 100.919 31.696C101.474 28.5813 102.146 25.584 102.935 22.704C103.084 22.1707 103.383 21.7973 103.831 21.584C104.279 21.3707 104.866 21.264 105.591 21.264C106.892 21.264 107.543 21.6267 107.543 22.352C107.543 22.6507 107.479 22.992 107.351 23.376C106.796 25.0827 106.242 27.376 105.687 30.256C105.132 33.1147 104.738 35.8453 104.503 38.448C105.143 38.512 105.868 38.544 106.679 38.544C110.412 38.544 113.196 37.4133 115.031 35.152C116.887 32.8907 117.815 29.872 117.815 26.096C117.815 23.5573 117.09 21.5947 115.639 20.208C114.188 18.8213 112.14 18.128 109.495 18.128C107.788 18.128 106.092 18.3947 104.407 18.928C102.743 19.4613 101.239 20.1653 99.895 21.04C99.6177 21.232 99.319 21.328 98.999 21.328C98.6363 21.328 98.3483 21.1787 98.135 20.88C97.9217 20.56 97.815 20.176 97.815 19.728C97.815 19.216 97.9003 18.8 98.071 18.48C98.2417 18.1387 98.5297 17.8293 98.935 17.552C100.407 16.5493 102.135 15.792 104.119 15.28C106.103 14.7467 108.012 14.48 109.847 14.48C112.45 14.48 114.7 14.9387 116.599 15.856C118.498 16.752 119.959 18.0747 120.983 19.824C122.007 21.5733 122.519 23.6853 122.519 26.16C122.519 29.3813 121.879 32.1973 120.599 34.608C119.319 36.9973 117.452 38.8533 114.999 40.176C112.546 41.4987 109.623 42.16 106.231 42.16ZM128.541 24.976C127.645 24.976 126.973 24.7733 126.525 24.368C126.077 23.9413 125.853 23.3547 125.853 22.608C125.853 21.8613 126.141 21.2427 126.717 20.752C127.314 20.24 128.05 19.984 128.925 19.984C129.714 19.984 130.354 20.176 130.845 20.56C131.335 20.944 131.581 21.488 131.581 22.192C131.581 23.0453 131.303 23.728 130.749 24.24C130.194 24.7307 129.458 24.976 128.541 24.976ZM128.285 42.16C126.898 42.16 125.885 41.6693 125.245 40.688C124.626 39.7067 124.317 38.4053 124.317 36.784C124.317 35.824 124.434 34.5973 124.669 33.104C124.925 31.5893 125.245 30.1813 125.629 28.88C125.821 28.1973 126.077 27.728 126.397 27.472C126.717 27.216 127.229 27.088 127.933 27.088C129.021 27.088 129.565 27.4507 129.565 28.176C129.565 28.7093 129.362 29.9467 128.957 31.888C128.445 34.2347 128.189 35.824 128.189 36.656C128.189 37.296 128.274 37.7867 128.445 38.128C128.615 38.4693 128.903 38.64 129.309 38.64C129.693 38.64 130.173 38.3733 130.749 37.84C131.325 37.3067 132.093 36.464 133.053 35.312C133.309 35.0133 133.597 34.864 133.917 34.864C134.194 34.864 134.407 34.992 134.557 35.248C134.727 35.504 134.813 35.856 134.813 36.304C134.813 37.1573 134.61 37.8187 134.205 38.288C132.093 40.8693 130.119 42.16 128.285 42.16ZM134.496 42.16C133.685 42.16 133.109 41.7333 132.768 40.88C132.448 40.0267 132.288 38.6613 132.288 36.784C132.288 34.0107 132.682 31.376 133.472 28.88C133.664 28.2613 133.973 27.8133 134.4 27.536C134.848 27.2373 135.466 27.088 136.256 27.088C136.682 27.088 136.981 27.1413 137.152 27.248C137.322 27.3547 137.408 27.5573 137.408 27.856C137.408 28.1973 137.248 28.9653 136.928 30.16C136.714 31.0133 136.544 31.76 136.416 32.4C136.288 33.04 136.181 33.8293 136.096 34.768C136.8 32.9333 137.589 31.44 138.464 30.288C139.338 29.136 140.192 28.3147 141.024 27.824C141.877 27.3333 142.656 27.088 143.36 27.088C144.746 27.088 145.44 27.7813 145.44 29.168C145.44 30 145.205 31.504 144.736 33.68C144.33 35.536 144.128 36.7627 144.128 37.36C144.128 38.2133 144.437 38.64 145.056 38.64C145.482 38.64 145.984 38.384 146.56 37.872C147.157 37.3387 147.946 36.4853 148.928 35.312C149.184 35.0133 149.472 34.864 149.792 34.864C150.069 34.864 150.282 34.992 150.432 35.248C150.602 35.504 150.688 35.856 150.688 36.304C150.688 37.1573 150.485 37.8187 150.08 38.288C149.162 39.4187 148.17 40.3467 147.104 41.072C146.058 41.7973 144.864 42.16 143.52 42.16C142.432 42.16 141.61 41.8507 141.056 41.232C140.501 40.592 140.224 39.6747 140.224 38.48C140.224 37.8827 140.373 36.816 140.672 35.28C140.949 33.936 141.088 33.008 141.088 32.496C141.088 32.1547 140.97 31.984 140.736 31.984C140.458 31.984 140.064 32.3467 139.552 33.072C139.061 33.776 138.549 34.7147 138.016 35.888C137.504 37.0613 137.088 38.2987 136.768 39.6C136.533 40.6027 136.256 41.2853 135.936 41.648C135.637 41.9893 135.157 42.16 134.496 42.16ZM158.947 28.144C159.48 28.144 159.853 28.2293 160.067 28.4C160.301 28.5493 160.419 28.8587 160.419 29.328C160.419 29.584 160.408 29.7867 160.387 29.936C160.301 30.5973 160.035 32.304 159.587 35.056C159.267 36.912 159.064 38.1387 158.979 38.736C158.168 44.24 157.069 48.5813 155.683 51.76C154.317 54.96 152.483 56.56 150.179 56.56C149.091 56.56 148.205 56.2187 147.523 55.536C146.84 54.8747 146.498 54 146.498 52.912C146.498 51.3973 147.096 49.7653 148.291 48.016C149.485 46.288 151.725 44.1547 155.01 41.616L155.203 40.368C154.84 40.944 154.36 41.392 153.763 41.712C153.187 42.0107 152.611 42.16 152.035 42.16C150.712 42.16 149.656 41.68 148.867 40.72C148.077 39.76 147.683 38.5013 147.683 36.944C147.683 35.2373 148.077 33.6267 148.867 32.112C149.656 30.576 150.701 29.3493 152.003 28.432C153.325 27.4933 154.723 27.024 156.195 27.024C156.664 27.024 156.973 27.12 157.123 27.312C157.293 27.4827 157.432 27.8027 157.539 28.272C157.944 28.1867 158.413 28.144 158.947 28.144ZM153.187 38.928C153.677 38.928 154.147 38.6293 154.595 38.032C155.043 37.4347 155.363 36.5813 155.555 35.472L156.579 30C155.704 30.0213 154.893 30.3627 154.147 31.024C153.4 31.664 152.803 32.5173 152.355 33.584C151.907 34.6507 151.683 35.7813 151.683 36.976C151.683 37.6373 151.811 38.128 152.067 38.448C152.344 38.768 152.717 38.928 153.187 38.928ZM150.531 53.456C151.064 53.456 151.661 52.816 152.323 51.536C153.005 50.256 153.656 48.2187 154.275 45.424C152.632 46.832 151.448 48.1013 150.723 49.232C149.997 50.3627 149.635 51.3547 149.635 52.208C149.635 52.5707 149.699 52.8693 149.827 53.104C149.976 53.3387 150.211 53.456 150.531 53.456Z" fill="#333333"/>
<path d="M26.224 55C26.144 55 26.076 54.972 26.02 54.916C25.964 54.86 25.936 54.792 25.936 54.712V46.9C25.936 46.812 25.96 46.74 26.008 46.684C26.064 46.628 26.136 46.6 26.224 46.6H31.432C31.52 46.6 31.592 46.628 31.648 46.684C31.704 46.74 31.732 46.812 31.732 46.9V47.74C31.732 47.828 31.704 47.9 31.648 47.956C31.592 48.004 31.52 48.028 31.432 48.028H27.58V50.308H31.192C31.28 50.308 31.352 50.336 31.408 50.392C31.464 50.448 31.492 50.52 31.492 50.608V51.448C31.492 51.536 31.464 51.608 31.408 51.664C31.352 51.712 31.28 51.736 31.192 51.736H27.58V54.712C27.58 54.8 27.552 54.872 27.496 54.928C27.44 54.976 27.368 55 27.28 55H26.224ZM33.3864 55C33.3064 55 33.2384 54.972 33.1824 54.916C33.1264 54.86 33.0984 54.792 33.0984 54.712V49.06C33.0984 48.98 33.1264 48.912 33.1824 48.856C33.2384 48.792 33.3064 48.76 33.3864 48.76H34.3584C34.4464 48.76 34.5184 48.788 34.5744 48.844C34.6304 48.9 34.6584 48.972 34.6584 49.06V49.552C34.8504 49.296 35.0904 49.1 35.3784 48.964C35.6744 48.828 36.0104 48.76 36.3864 48.76H36.8784C36.9664 48.76 37.0344 48.788 37.0824 48.844C37.1384 48.892 37.1664 48.96 37.1664 49.048V49.912C37.1664 49.992 37.1384 50.06 37.0824 50.116C37.0344 50.172 36.9664 50.2 36.8784 50.2H35.9424C35.5664 50.2 35.2704 50.308 35.0544 50.524C34.8384 50.74 34.7304 51.036 34.7304 51.412V54.712C34.7304 54.792 34.7024 54.86 34.6464 54.916C34.5904 54.972 34.5184 55 34.4304 55H33.3864ZM41.0203 55.12C40.0843 55.12 39.3603 54.88 38.8483 54.4C38.3363 53.912 38.0603 53.248 38.0203 52.408L38.0083 51.88L38.0203 51.352C38.0603 50.52 38.3403 49.86 38.8603 49.372C39.3803 48.884 40.1003 48.64 41.0203 48.64C41.9403 48.64 42.6603 48.884 43.1803 49.372C43.7003 49.86 43.9803 50.52 44.0203 51.352C44.0283 51.448 44.0323 51.624 44.0323 51.88C44.0323 52.136 44.0283 52.312 44.0203 52.408C43.9803 53.248 43.7043 53.912 43.1923 54.4C42.6803 54.88 41.9563 55.12 41.0203 55.12ZM41.0203 53.932C41.4443 53.932 41.7723 53.8 42.0043 53.536C42.2363 53.264 42.3643 52.868 42.3883 52.348C42.3963 52.268 42.4003 52.112 42.4003 51.88C42.4003 51.648 42.3963 51.492 42.3883 51.412C42.3643 50.892 42.2363 50.5 42.0043 50.236C41.7723 49.964 41.4443 49.828 41.0203 49.828C40.5963 49.828 40.2683 49.964 40.0363 50.236C39.8043 50.5 39.6763 50.892 39.6523 51.412L39.6403 51.88L39.6523 52.348C39.6763 52.868 39.8043 53.264 40.0363 53.536C40.2683 53.8 40.5963 53.932 41.0203 53.932ZM45.8898 55C45.8098 55 45.7418 54.972 45.6858 54.916C45.6298 54.86 45.6018 54.792 45.6018 54.712V49.048C45.6018 48.968 45.6298 48.9 45.6858 48.844C45.7418 48.788 45.8098 48.76 45.8898 48.76H46.8738C46.9538 48.76 47.0218 48.788 47.0778 48.844C47.1338 48.9 47.1618 48.968 47.1618 49.048V49.54C47.6338 48.94 48.3018 48.64 49.1658 48.64C49.9018 48.64 50.4858 48.884 50.9178 49.372C51.3498 49.852 51.5658 50.508 51.5658 51.34V54.712C51.5658 54.792 51.5378 54.86 51.4818 54.916C51.4338 54.972 51.3658 55 51.2778 55H50.2218C50.1418 55 50.0738 54.972 50.0178 54.916C49.9618 54.86 49.9338 54.792 49.9338 54.712V51.412C49.9338 50.94 49.8178 50.576 49.5858 50.32C49.3618 50.056 49.0338 49.924 48.6018 49.924C48.1778 49.924 47.8418 50.056 47.5938 50.32C47.3538 50.584 47.2338 50.948 47.2338 51.412V54.712C47.2338 54.792 47.2058 54.86 47.1498 54.916C47.1018 54.972 47.0338 55 46.9458 55H45.8898ZM56.0798 55C55.3518 55 54.8038 54.812 54.4358 54.436C54.0758 54.052 53.8958 53.492 53.8958 52.756V50.032H52.9478C52.8678 50.032 52.7998 50.004 52.7438 49.948C52.6878 49.884 52.6598 49.812 52.6598 49.732V49.048C52.6598 48.968 52.6878 48.9 52.7438 48.844C52.7998 48.788 52.8678 48.76 52.9478 48.76H53.8958V46.768C53.8958 46.68 53.9238 46.612 53.9798 46.564C54.0358 46.508 54.1038 46.48 54.1838 46.48H55.1558C55.2438 46.48 55.3118 46.508 55.3598 46.564C55.4158 46.612 55.4438 46.68 55.4438 46.768V48.76H56.9438C57.0318 48.76 57.0998 48.788 57.1478 48.844C57.2038 48.892 57.2318 48.96 57.2318 49.048V49.732C57.2318 49.82 57.2038 49.892 57.1478 49.948C57.0918 50.004 57.0238 50.032 56.9438 50.032H55.4438V52.636C55.4438 52.98 55.5038 53.24 55.6238 53.416C55.7438 53.592 55.9438 53.68 56.2238 53.68H57.0518C57.1318 53.68 57.1998 53.708 57.2558 53.764C57.3118 53.82 57.3398 53.888 57.3398 53.968V54.712C57.3398 54.792 57.3118 54.86 57.2558 54.916C57.2078 54.972 57.1398 55 57.0518 55H56.0798ZM64.3145 55.12C63.4265 55.12 62.7185 54.864 62.1905 54.352C61.6705 53.832 61.3945 53.104 61.3625 52.168L61.3505 51.868L61.3625 51.568C61.4025 50.656 61.6825 49.94 62.2025 49.42C62.7305 48.9 63.4345 48.64 64.3145 48.64C65.2585 48.64 65.9865 48.928 66.4985 49.504C67.0185 50.08 67.2785 50.848 67.2785 51.808V52.06C67.2785 52.14 67.2505 52.208 67.1945 52.264C67.1385 52.32 67.0665 52.348 66.9785 52.348H62.9945V52.444C63.0105 52.884 63.1305 53.256 63.3545 53.56C63.5865 53.856 63.9025 54.004 64.3025 54.004C64.7745 54.004 65.1545 53.82 65.4425 53.452C65.5145 53.364 65.5705 53.308 65.6105 53.284C65.6585 53.26 65.7265 53.248 65.8145 53.248H66.8465C66.9185 53.248 66.9785 53.272 67.0265 53.32C67.0825 53.36 67.1105 53.412 67.1105 53.476C67.1105 53.668 66.9945 53.896 66.7625 54.16C66.5385 54.416 66.2145 54.64 65.7905 54.832C65.3665 55.024 64.8745 55.12 64.3145 55.12ZM65.6465 51.34V51.304C65.6465 50.832 65.5265 50.452 65.2865 50.164C65.0545 49.876 64.7305 49.732 64.3145 49.732C63.8985 49.732 63.5745 49.876 63.3425 50.164C63.1105 50.452 62.9945 50.832 62.9945 51.304V51.34H65.6465ZM69.0803 55C69.0003 55 68.9323 54.972 68.8763 54.916C68.8203 54.86 68.7923 54.792 68.7923 54.712V49.048C68.7923 48.968 68.8203 48.9 68.8763 48.844C68.9323 48.788 69.0003 48.76 69.0803 48.76H70.0643C70.1443 48.76 70.2123 48.788 70.2683 48.844C70.3243 48.9 70.3523 48.968 70.3523 49.048V49.54C70.8243 48.94 71.4923 48.64 72.3563 48.64C73.0923 48.64 73.6763 48.884 74.1083 49.372C74.5403 49.852 74.7563 50.508 74.7563 51.34V54.712C74.7563 54.792 74.7283 54.86 74.6723 54.916C74.6243 54.972 74.5563 55 74.4683 55H73.4123C73.3323 55 73.2643 54.972 73.2083 54.916C73.1523 54.86 73.1243 54.792 73.1243 54.712V51.412C73.1243 50.94 73.0083 50.576 72.7763 50.32C72.5523 50.056 72.2243 49.924 71.7923 49.924C71.3683 49.924 71.0323 50.056 70.7843 50.32C70.5443 50.584 70.4243 50.948 70.4243 51.412V54.712C70.4243 54.792 70.3963 54.86 70.3403 54.916C70.2923 54.972 70.2243 55 70.1363 55H69.0803ZM78.8366 55.12C78.0286 55.12 77.4086 54.86 76.9766 54.34C76.5446 53.82 76.3126 53.128 76.2806 52.264L76.2686 51.868L76.2806 51.484C76.3046 50.644 76.5326 49.96 76.9646 49.432C77.4046 48.904 78.0286 48.64 78.8366 48.64C79.6126 48.64 80.2286 48.904 80.6846 49.432V46.768C80.6846 46.68 80.7126 46.612 80.7686 46.564C80.8246 46.508 80.8926 46.48 80.9726 46.48H81.9926C82.0806 46.48 82.1486 46.508 82.1966 46.564C82.2526 46.612 82.2806 46.68 82.2806 46.768V54.712C82.2806 54.792 82.2526 54.86 82.1966 54.916C82.1486 54.972 82.0806 55 81.9926 55H81.0446C80.9646 55 80.8966 54.972 80.8406 54.916C80.7846 54.86 80.7566 54.792 80.7566 54.712V54.268C80.3006 54.836 79.6606 55.12 78.8366 55.12ZM79.2806 53.836C79.7446 53.836 80.0886 53.688 80.3126 53.392C80.5366 53.096 80.6606 52.732 80.6846 52.3C80.6926 52.204 80.6966 52.048 80.6966 51.832C80.6966 51.624 80.6926 51.472 80.6846 51.376C80.6686 50.976 80.5406 50.636 80.3006 50.356C80.0686 50.068 79.7286 49.924 79.2806 49.924C78.4166 49.924 77.9566 50.456 77.9006 51.52L77.8886 51.88L77.9006 52.24C77.9566 53.304 78.4166 53.836 79.2806 53.836ZM89.4182 55.12C88.6102 55.12 87.9902 54.86 87.5582 54.34C87.1262 53.82 86.8942 53.128 86.8622 52.264L86.8502 51.868L86.8622 51.484C86.8862 50.644 87.1142 49.96 87.5462 49.432C87.9862 48.904 88.6102 48.64 89.4182 48.64C90.1942 48.64 90.8102 48.904 91.2662 49.432V46.768C91.2662 46.68 91.2942 46.612 91.3502 46.564C91.4062 46.508 91.4742 46.48 91.5542 46.48H92.5742C92.6622 46.48 92.7302 46.508 92.7782 46.564C92.8342 46.612 92.8622 46.68 92.8622 46.768V54.712C92.8622 54.792 92.8342 54.86 92.7782 54.916C92.7302 54.972 92.6622 55 92.5742 55H91.6262C91.5462 55 91.4782 54.972 91.4222 54.916C91.3662 54.86 91.3382 54.792 91.3382 54.712V54.268C90.8822 54.836 90.2422 55.12 89.4182 55.12ZM89.8622 53.836C90.3262 53.836 90.6702 53.688 90.8942 53.392C91.1182 53.096 91.2422 52.732 91.2662 52.3C91.2742 52.204 91.2782 52.048 91.2782 51.832C91.2782 51.624 91.2742 51.472 91.2662 51.376C91.2502 50.976 91.1222 50.636 90.8822 50.356C90.6502 50.068 90.3102 49.924 89.8622 49.924C88.9982 49.924 88.5382 50.456 88.4822 51.52L88.4702 51.88L88.4822 52.24C88.5382 53.304 88.9982 53.836 89.8622 53.836ZM97.3895 55.12C96.5015 55.12 95.7935 54.864 95.2655 54.352C94.7455 53.832 94.4695 53.104 94.4375 52.168L94.4255 51.868L94.4375 51.568C94.4775 50.656 94.7575 49.94 95.2775 49.42C95.8055 48.9 96.5095 48.64 97.3895 48.64C98.3335 48.64 99.0615 48.928 99.5735 49.504C100.094 50.08 100.354 50.848 100.354 51.808V52.06C100.354 52.14 100.326 52.208 100.27 52.264C100.214 52.32 100.142 52.348 100.054 52.348H96.0695V52.444C96.0855 52.884 96.2055 53.256 96.4295 53.56C96.6615 53.856 96.9775 54.004 97.3775 54.004C97.8495 54.004 98.2295 53.82 98.5175 53.452C98.5895 53.364 98.6455 53.308 98.6855 53.284C98.7335 53.26 98.8015 53.248 98.8895 53.248H99.9215C99.9935 53.248 100.054 53.272 100.102 53.32C100.158 53.36 100.186 53.412 100.186 53.476C100.186 53.668 100.07 53.896 99.8375 54.16C99.6135 54.416 99.2895 54.64 98.8655 54.832C98.4415 55.024 97.9495 55.12 97.3895 55.12ZM98.7215 51.34V51.304C98.7215 50.832 98.6015 50.452 98.3615 50.164C98.1295 49.876 97.8055 49.732 97.3895 49.732C96.9735 49.732 96.6495 49.876 96.4175 50.164C96.1855 50.452 96.0695 50.832 96.0695 51.304V51.34H98.7215ZM103.853 55C103.733 55 103.641 54.976 103.577 54.928C103.513 54.872 103.461 54.796 103.421 54.7L101.177 49.132L101.153 49.024C101.153 48.952 101.177 48.892 101.225 48.844C101.281 48.788 101.345 48.76 101.417 48.76H102.389C102.541 48.76 102.645 48.836 102.701 48.988L104.297 53.2L105.893 48.988C105.917 48.932 105.953 48.88 106.001 48.832C106.057 48.784 106.125 48.76 106.205 48.76H107.189C107.253 48.76 107.309 48.788 107.357 48.844C107.413 48.892 107.441 48.952 107.441 49.024C107.441 49.072 107.437 49.108 107.429 49.132L105.173 54.7C105.133 54.796 105.081 54.872 105.017 54.928C104.953 54.976 104.861 55 104.741 55H103.853ZM111.241 55.12C110.353 55.12 109.645 54.864 109.117 54.352C108.597 53.832 108.321 53.104 108.289 52.168L108.277 51.868L108.289 51.568C108.329 50.656 108.609 49.94 109.129 49.42C109.657 48.9 110.361 48.64 111.241 48.64C112.185 48.64 112.913 48.928 113.425 49.504C113.945 50.08 114.205 50.848 114.205 51.808V52.06C114.205 52.14 114.177 52.208 114.121 52.264C114.065 52.32 113.993 52.348 113.905 52.348H109.921V52.444C109.937 52.884 110.057 53.256 110.281 53.56C110.513 53.856 110.829 54.004 111.229 54.004C111.701 54.004 112.081 53.82 112.369 53.452C112.441 53.364 112.497 53.308 112.537 53.284C112.585 53.26 112.653 53.248 112.741 53.248H113.773C113.845 53.248 113.905 53.272 113.953 53.32C114.009 53.36 114.037 53.412 114.037 53.476C114.037 53.668 113.921 53.896 113.689 54.16C113.465 54.416 113.141 54.64 112.717 54.832C112.293 55.024 111.801 55.12 111.241 55.12ZM112.573 51.34V51.304C112.573 50.832 112.453 50.452 112.213 50.164C111.981 49.876 111.657 49.732 111.241 49.732C110.825 49.732 110.501 49.876 110.269 50.164C110.037 50.452 109.921 50.832 109.921 51.304V51.34H112.573ZM116.018 55C115.938 55 115.87 54.972 115.814 54.916C115.758 54.86 115.73 54.792 115.73 54.712V46.768C115.73 46.68 115.758 46.612 115.814 46.564C115.87 46.508 115.938 46.48 116.018 46.48H117.014C117.102 46.48 117.17 46.508 117.218 46.564C117.274 46.612 117.302 46.68 117.302 46.768V54.712C117.302 54.792 117.274 54.86 117.218 54.916C117.17 54.972 117.102 55 117.014 55H116.018ZM121.894 55.12C120.958 55.12 120.234 54.88 119.722 54.4C119.21 53.912 118.934 53.248 118.894 52.408L118.882 51.88L118.894 51.352C118.934 50.52 119.214 49.86 119.734 49.372C120.254 48.884 120.974 48.64 121.894 48.64C122.814 48.64 123.534 48.884 124.054 49.372C124.574 49.86 124.854 50.52 124.894 51.352C124.902 51.448 124.906 51.624 124.906 51.88C124.906 52.136 124.902 52.312 124.894 52.408C124.854 53.248 124.578 53.912 124.066 54.4C123.554 54.88 122.83 55.12 121.894 55.12ZM121.894 53.932C122.318 53.932 122.646 53.8 122.878 53.536C123.11 53.264 123.238 52.868 123.262 52.348C123.27 52.268 123.274 52.112 123.274 51.88C123.274 51.648 123.27 51.492 123.262 51.412C123.238 50.892 123.11 50.5 122.878 50.236C122.646 49.964 122.318 49.828 121.894 49.828C121.47 49.828 121.142 49.964 120.91 50.236C120.678 50.5 120.55 50.892 120.526 51.412L120.514 51.88L120.526 52.348C120.55 52.868 120.678 53.264 120.91 53.536C121.142 53.8 121.47 53.932 121.894 53.932ZM126.776 57.28C126.696 57.28 126.628 57.252 126.572 57.196C126.516 57.148 126.488 57.08 126.488 56.992V49.048C126.488 48.96 126.516 48.892 126.572 48.844C126.628 48.788 126.696 48.76 126.776 48.76H127.724C127.812 48.76 127.88 48.788 127.928 48.844C127.984 48.892 128.012 48.96 128.012 49.048V49.528C128.46 48.936 129.1 48.64 129.932 48.64C130.74 48.64 131.36 48.896 131.792 49.408C132.224 49.912 132.456 50.596 132.488 51.46C132.496 51.556 132.5 51.696 132.5 51.88C132.5 52.072 132.496 52.216 132.488 52.312C132.456 53.152 132.224 53.832 131.792 54.352C131.36 54.864 130.74 55.12 129.932 55.12C129.124 55.12 128.508 54.836 128.084 54.268V56.992C128.084 57.08 128.056 57.148 128 57.196C127.952 57.252 127.884 57.28 127.796 57.28H126.776ZM129.488 53.836C130.352 53.836 130.812 53.304 130.868 52.24C130.876 52.16 130.88 52.04 130.88 51.88C130.88 51.72 130.876 51.6 130.868 51.52C130.812 50.456 130.352 49.924 129.488 49.924C129.024 49.924 128.68 50.072 128.456 50.368C128.232 50.664 128.108 51.028 128.084 51.46L128.072 51.916L128.084 52.384C128.1 52.784 128.224 53.128 128.456 53.416C128.696 53.696 129.04 53.836 129.488 53.836ZM136.775 55.12C135.887 55.12 135.179 54.864 134.651 54.352C134.131 53.832 133.855 53.104 133.823 52.168L133.811 51.868L133.823 51.568C133.863 50.656 134.143 49.94 134.663 49.42C135.191 48.9 135.895 48.64 136.775 48.64C137.719 48.64 138.447 48.928 138.959 49.504C139.479 50.08 139.739 50.848 139.739 51.808V52.06C139.739 52.14 139.711 52.208 139.655 52.264C139.599 52.32 139.527 52.348 139.439 52.348H135.455V52.444C135.471 52.884 135.591 53.256 135.815 53.56C136.047 53.856 136.363 54.004 136.763 54.004C137.235 54.004 137.615 53.82 137.903 53.452C137.975 53.364 138.031 53.308 138.071 53.284C138.119 53.26 138.187 53.248 138.275 53.248H139.307C139.379 53.248 139.439 53.272 139.487 53.32C139.543 53.36 139.571 53.412 139.571 53.476C139.571 53.668 139.455 53.896 139.223 54.16C138.999 54.416 138.675 54.64 138.251 54.832C137.827 55.024 137.335 55.12 136.775 55.12ZM138.107 51.34V51.304C138.107 50.832 137.987 50.452 137.747 50.164C137.515 49.876 137.191 49.732 136.775 49.732C136.359 49.732 136.035 49.876 135.803 50.164C135.571 50.452 135.455 50.832 135.455 51.304V51.34H138.107ZM141.541 55C141.461 55 141.393 54.972 141.337 54.916C141.281 54.86 141.253 54.792 141.253 54.712V49.06C141.253 48.98 141.281 48.912 141.337 48.856C141.393 48.792 141.461 48.76 141.541 48.76H142.513C142.601 48.76 142.673 48.788 142.729 48.844C142.785 48.9 142.813 48.972 142.813 49.06V49.552C143.005 49.296 143.245 49.1 143.533 48.964C143.829 48.828 144.165 48.76 144.541 48.76H145.033C145.121 48.76 145.189 48.788 145.237 48.844C145.293 48.892 145.321 48.96 145.321 49.048V49.912C145.321 49.992 145.293 50.06 145.237 50.116C145.189 50.172 145.121 50.2 145.033 50.2H144.097C143.721 50.2 143.425 50.308 143.209 50.524C142.993 50.74 142.885 51.036 142.885 51.412V54.712C142.885 54.792 142.857 54.86 142.801 54.916C142.745 54.972 142.673 55 142.585 55H141.541Z" fill="#333333"/>
</svg>
